<mxfile host="app.diagrams.net" modified="2020-09-26T01:19:32.890Z" agent="5.0 (Windows NT 10.0; Win64; x64) AppleWebKit/537.36 (KHTML, like Gecko) Chrome/85.0.4183.102 Safari/537.36" etag="BwJgpNmmgza7BzU2K2Nt" version="13.7.5" type="github">
  <diagram id="RiC1Pd-CVS03qfymCpe2" name="Page-1">
    <mxGraphModel dx="700" dy="752" grid="1" gridSize="10" guides="1" tooltips="1" connect="1" arrows="1" fold="1" page="1" pageScale="1" pageWidth="1169" pageHeight="1654" background="#F4F1DE" math="0" shadow="1">
      <root>
        <mxCell id="0" />
        <mxCell id="1" parent="0" />
        <mxCell id="aLo_fdup30zHm0qRzvcR-1" value="&lt;b&gt;&lt;font style=&quot;font-size: 16px&quot;&gt;Core Building Blocks&lt;/font&gt;&lt;/b&gt;" style="whiteSpace=wrap;html=1;fillColor=#F2CC8F;strokeColor=#E07A5F;fontColor=#393C56;rounded=1;" parent="1" vertex="1">
          <mxGeometry x="354" y="130" width="180" height="60" as="geometry" />
        </mxCell>
        <mxCell id="aLo_fdup30zHm0qRzvcR-2" value="Service Workers" style="whiteSpace=wrap;html=1;fillColor=#F2CC8F;strokeColor=#E07A5F;fontColor=#393C56;rounded=1;" parent="1" vertex="1">
          <mxGeometry x="304" y="215" width="120" height="60" as="geometry" />
        </mxCell>
        <mxCell id="aLo_fdup30zHm0qRzvcR-3" value="Application Manifest" style="whiteSpace=wrap;html=1;fillColor=#F2CC8F;strokeColor=#E07A5F;fontColor=#393C56;rounded=1;" parent="1" vertex="1">
          <mxGeometry x="464" y="215" width="120" height="60" as="geometry" />
        </mxCell>
        <mxCell id="aLo_fdup30zHm0qRzvcR-5" value="Background Sync" style="whiteSpace=wrap;html=1;fillColor=#F2CC8F;strokeColor=#E07A5F;fontColor=#393C56;rounded=1;" parent="1" vertex="1">
          <mxGeometry x="304" y="295" width="120" height="60" as="geometry" />
        </mxCell>
        <mxCell id="aLo_fdup30zHm0qRzvcR-7" value="Web Push Notifications" style="whiteSpace=wrap;html=1;fillColor=#F2CC8F;strokeColor=#E07A5F;fontColor=#393C56;rounded=1;" parent="1" vertex="1">
          <mxGeometry x="464" y="295" width="120" height="60" as="geometry" />
        </mxCell>
        <mxCell id="aLo_fdup30zHm0qRzvcR-12" value="Geolocation API" style="whiteSpace=wrap;html=1;fillColor=#F2CC8F;strokeColor=#E07A5F;fontColor=#393C56;rounded=1;" parent="1" vertex="1">
          <mxGeometry x="254" y="365" width="120" height="60" as="geometry" />
        </mxCell>
        <mxCell id="aLo_fdup30zHm0qRzvcR-13" value="Responsive Design" style="whiteSpace=wrap;html=1;fillColor=#F2CC8F;strokeColor=#E07A5F;fontColor=#393C56;rounded=1;" parent="1" vertex="1">
          <mxGeometry x="384" y="365" width="120" height="60" as="geometry" />
        </mxCell>
        <mxCell id="aLo_fdup30zHm0qRzvcR-14" value="Media API" style="whiteSpace=wrap;html=1;fillColor=#F2CC8F;strokeColor=#E07A5F;fontColor=#393C56;rounded=1;" parent="1" vertex="1">
          <mxGeometry x="514" y="365" width="120" height="60" as="geometry" />
        </mxCell>
        <mxCell id="aLo_fdup30zHm0qRzvcR-21" value="Foundation" style="text;html=1;strokeColor=none;fillColor=none;align=center;verticalAlign=middle;whiteSpace=wrap;fontColor=#393C56;rounded=1;" parent="1" vertex="1">
          <mxGeometry x="175" y="235" width="60" height="20" as="geometry" />
        </mxCell>
        <mxCell id="De729mAfI8-qcJezeKiz-1" value="Optional&amp;nbsp;&lt;br&gt;Functionalities&lt;br&gt;" style="text;html=1;strokeColor=none;fillColor=none;align=center;verticalAlign=middle;whiteSpace=wrap;fontColor=#393C56;rounded=1;" parent="1" vertex="1">
          <mxGeometry x="185" y="385" width="40" height="20" as="geometry" />
        </mxCell>
        <mxCell id="De729mAfI8-qcJezeKiz-2" value="Advanced&lt;br&gt;Functionalities" style="text;html=1;strokeColor=none;fillColor=none;align=center;verticalAlign=middle;whiteSpace=wrap;fontColor=#393C56;rounded=1;" parent="1" vertex="1">
          <mxGeometry x="180" y="315" width="50" height="20" as="geometry" />
        </mxCell>
      </root>
    </mxGraphModel>
  </diagram>
</mxfile>
